<mxfile host="app.diagrams.net" modified="2020-11-28T03:03:39.229Z" agent="5.0 (Windows NT 10.0; Win64; x64) AppleWebKit/537.36 (KHTML, like Gecko) Chrome/87.0.4280.67 Safari/537.36 Edg/87.0.664.47" etag="4W4zgZzvWYy3SGT6_OCe" version="13.7.7" type="github">
  <diagram id="p2eEYNMsw36fiGnW2max" name="第 1 页">
    <mxGraphModel dx="1106" dy="537" grid="1" gridSize="10" guides="1" tooltips="1" connect="1" arrows="1" fold="1" page="1" pageScale="1" pageWidth="827" pageHeight="1169" math="0" shadow="0">
      <root>
        <mxCell id="0" />
        <mxCell id="1" parent="0" />
        <mxCell id="svTPleAfIGB_FOyb9B5l-1" value="" style="rounded=1;whiteSpace=wrap;html=1;" vertex="1" parent="1">
          <mxGeometry x="50" y="130" width="260" height="150" as="geometry" />
        </mxCell>
        <mxCell id="svTPleAfIGB_FOyb9B5l-2" value="&lt;font style=&quot;font-size: 17px&quot;&gt;Tomcat&lt;/font&gt;" style="text;html=1;strokeColor=none;fillColor=none;align=center;verticalAlign=middle;whiteSpace=wrap;rounded=0;" vertex="1" parent="1">
          <mxGeometry x="60" y="140" width="70" height="40" as="geometry" />
        </mxCell>
        <mxCell id="svTPleAfIGB_FOyb9B5l-7" style="edgeStyle=orthogonalEdgeStyle;rounded=0;orthogonalLoop=1;jettySize=auto;html=1;entryX=0;entryY=0.5;entryDx=0;entryDy=0;" edge="1" parent="1" source="svTPleAfIGB_FOyb9B5l-3" target="svTPleAfIGB_FOyb9B5l-5">
          <mxGeometry relative="1" as="geometry" />
        </mxCell>
        <mxCell id="svTPleAfIGB_FOyb9B5l-3" value="&lt;font style=&quot;font-size: 16px&quot;&gt;A系统&lt;/font&gt;" style="ellipse;whiteSpace=wrap;html=1;aspect=fixed;" vertex="1" parent="1">
          <mxGeometry x="120" y="165" width="80" height="80" as="geometry" />
        </mxCell>
        <mxCell id="svTPleAfIGB_FOyb9B5l-22" style="edgeStyle=orthogonalEdgeStyle;rounded=0;orthogonalLoop=1;jettySize=auto;html=1;entryX=0.5;entryY=0;entryDx=0;entryDy=0;entryPerimeter=0;" edge="1" parent="1" source="svTPleAfIGB_FOyb9B5l-5" target="svTPleAfIGB_FOyb9B5l-20">
          <mxGeometry relative="1" as="geometry" />
        </mxCell>
        <mxCell id="svTPleAfIGB_FOyb9B5l-5" value="&lt;font style=&quot;font-size: 19px&quot;&gt;session&lt;/font&gt;" style="text;html=1;strokeColor=none;fillColor=none;align=center;verticalAlign=middle;whiteSpace=wrap;rounded=0;" vertex="1" parent="1">
          <mxGeometry x="230" y="176.25" width="70" height="57.5" as="geometry" />
        </mxCell>
        <mxCell id="svTPleAfIGB_FOyb9B5l-14" value="" style="rounded=1;whiteSpace=wrap;html=1;" vertex="1" parent="1">
          <mxGeometry x="520" y="130" width="260" height="150" as="geometry" />
        </mxCell>
        <mxCell id="svTPleAfIGB_FOyb9B5l-15" value="&lt;font style=&quot;font-size: 17px&quot;&gt;Tomcat&lt;/font&gt;" style="text;html=1;strokeColor=none;fillColor=none;align=center;verticalAlign=middle;whiteSpace=wrap;rounded=0;" vertex="1" parent="1">
          <mxGeometry x="700" y="136.25" width="70" height="40" as="geometry" />
        </mxCell>
        <mxCell id="svTPleAfIGB_FOyb9B5l-19" style="edgeStyle=orthogonalEdgeStyle;rounded=0;orthogonalLoop=1;jettySize=auto;html=1;entryX=1;entryY=0.5;entryDx=0;entryDy=0;" edge="1" parent="1" source="svTPleAfIGB_FOyb9B5l-17" target="svTPleAfIGB_FOyb9B5l-18">
          <mxGeometry relative="1" as="geometry" />
        </mxCell>
        <mxCell id="svTPleAfIGB_FOyb9B5l-17" value="&lt;font style=&quot;font-size: 16px&quot;&gt;B系统&lt;/font&gt;" style="ellipse;whiteSpace=wrap;html=1;aspect=fixed;" vertex="1" parent="1">
          <mxGeometry x="630" y="165" width="80" height="80" as="geometry" />
        </mxCell>
        <mxCell id="svTPleAfIGB_FOyb9B5l-24" style="edgeStyle=orthogonalEdgeStyle;rounded=0;orthogonalLoop=1;jettySize=auto;html=1;" edge="1" parent="1" source="svTPleAfIGB_FOyb9B5l-18">
          <mxGeometry relative="1" as="geometry">
            <mxPoint x="480" y="205" as="targetPoint" />
          </mxGeometry>
        </mxCell>
        <mxCell id="svTPleAfIGB_FOyb9B5l-18" value="&lt;font style=&quot;font-size: 19px&quot;&gt;session&lt;/font&gt;" style="text;html=1;strokeColor=none;fillColor=none;align=center;verticalAlign=middle;whiteSpace=wrap;rounded=0;" vertex="1" parent="1">
          <mxGeometry x="530" y="176.25" width="70" height="57.5" as="geometry" />
        </mxCell>
        <mxCell id="svTPleAfIGB_FOyb9B5l-20" value="" style="shape=cylinder3;whiteSpace=wrap;html=1;boundedLbl=1;backgroundOutline=1;size=15;rotation=-90;" vertex="1" parent="1">
          <mxGeometry x="380" y="142.5" width="70" height="125" as="geometry" />
        </mxCell>
        <mxCell id="svTPleAfIGB_FOyb9B5l-21" value="&lt;font style=&quot;font-size: 16px&quot;&gt;Redis&lt;/font&gt;" style="text;html=1;strokeColor=none;fillColor=none;align=center;verticalAlign=middle;whiteSpace=wrap;rounded=0;" vertex="1" parent="1">
          <mxGeometry x="390" y="187.5" width="60" height="35" as="geometry" />
        </mxCell>
      </root>
    </mxGraphModel>
  </diagram>
</mxfile>
